<svg xmlns="http://www.w3.org/2000/svg" version="1.1" viewBox="314.25 54.75 315 340.5"><g transform="matrix(1 0 0 -1 0 450)"><g transform="matrix(0.6562499727 0 0 -0.6562499727 314.2499869063 395.2500022812)"><path d="M 165 92 L 315 92 L 240 190 L 165 92 Z" fill="none" stroke="#f5ecd8" stroke-opacity="1" stroke-miterlimit="4" stroke-linecap="round" stroke-linejoin="round" stroke-width="4.5px" stroke-dasharray="" stroke-dashoffset="0px"></path><path d="M 240 190 L 240 272" fill="none" stroke="#f5ecd8" stroke-opacity="1" stroke-miterlimit="4" stroke-linecap="round" stroke-linejoin="round" stroke-width="4.5px" stroke-dasharray="" stroke-dashoffset="0px"></path><path d="M 286 278 C 286 278.22925 285.92618 278.45795 285.77853 278.68613 C 285.63083 278.91425 285.41 279.14075 285.11609 279.3656 C 284.82217 279.59045 284.45657 279.81256 284.01923 280.03195 C 283.58188 280.25134 283.07495 280.46695 282.49841 280.67874 C 281.92191 280.89056 281.27853 281.09756 280.56836 281.29974 C 279.85818 281.50192 279.08456 281.69833 278.24756 281.88895 C 277.41058 282.07959 276.51422 282.26352 275.55847 282.44073 C 274.60272 282.61795 273.59219 282.78763 272.52689 282.94974 C 271.46161 283.11185 270.34665 283.26563 269.18207 283.41107 C 268.01749 283.55649 266.80884 283.6929 265.55618 283.82025 C 264.30353 283.94763 263.01288 284.06537 261.68423 284.17343 C 260.35556 284.28149 258.99527 284.37939 257.60339 284.46713 C 256.21152 284.55487 254.79475 284.63202 253.35307 284.69855 C 251.91141 284.76511 250.45175 284.82074 248.97414 284.86545 C 247.49654 284.91022 246.00809 284.94382 244.50879 284.96631 C 243.00948 284.98877 241.50655 285 240 285 C 238.49345 285 236.99052 284.98877 235.49121 284.96631 C 233.99193 284.94382 232.50346 284.91022 231.02583 284.86545 C 229.54822 284.82074 228.08858 284.76511 226.6469 284.69855 C 225.20522 284.63202 223.78844 284.55487 222.39655 284.46713 C 221.00467 284.37939 219.64439 284.28149 218.31573 284.1734 C 216.98706 284.06534 215.6964 283.9476 214.44373 283.82022 C 213.19109 283.69287 211.98248 283.55646 210.8179 283.41104 C 209.65332 283.26563 208.53838 283.11185 207.47307 282.94974 C 206.40778 282.78763 205.39725 282.61795 204.4415 282.44073 C 203.48576 282.26352 202.58939 282.07959 201.75238 281.88895 C 200.91539 281.69833 200.1418 281.50192 199.43161 281.29974 C 198.72141 281.09756 198.07803 280.89056 197.50151 280.67874 C 196.92499 280.46695 196.41806 280.25134 195.98073 280.03195 C 195.5434 279.81256 195.17778 279.59045 194.88385 279.3656 C 194.58995 279.14075 194.36917 278.91425 194.2215 278.68613 C 194.07384 278.45795 194.00002 278.22925 194 278 C 194.00002 277.77075 194.07385 277.54205 194.22151 277.31387 C 194.36917 277.08569 194.58997 276.85919 194.88387 276.63434 C 195.17778 276.40948 195.54341 276.18738 195.98074 275.96799 C 196.41808 275.7486 196.92499 275.53299 197.50151 275.32117 C 198.07803 275.10938 198.72141 274.90237 199.43161 274.7002 C 200.1418 274.49802 200.91539 274.30161 201.75238 274.11096 C 202.58939 273.92038 203.48576 273.73645 204.4415 273.55923 C 205.39725 273.38202 206.40778 273.21234 207.47307 273.05023 C 208.53838 272.88812 209.65332 272.73434 210.81789 272.58893 C 211.98248 272.44348 213.19109 272.30707 214.44373 272.17969 C 215.6964 272.05234 216.98706 271.93463 218.31572 271.82654 C 219.64439 271.71848 221.00467 271.62057 222.39655 271.53284 C 223.78844 271.4451 225.20522 271.36798 226.6469 271.30142 C 228.08858 271.23489 229.54822 271.17926 231.02583 271.13449 C 232.50346 271.08978 233.99193 271.05621 235.49121 271.03372 C 236.99052 271.01126 238.49345 271.00003 240 271 C 241.50655 271.00003 243.00948 271.01126 244.50877 271.03372 C 246.00809 271.05621 247.49654 271.08978 248.97414 271.13449 C 250.45175 271.17926 251.91141 271.23489 253.35309 271.30142 C 254.79475 271.36798 256.21152 271.4451 257.60339 271.53284 C 258.99527 271.62057 260.35556 271.71848 261.68423 271.82654 C 263.01288 271.93463 264.30353 272.05234 265.55618 272.17969 C 266.80884 272.30707 268.01749 272.44348 269.18207 272.58893 C 270.34665 272.73434 271.46161 272.88812 272.52689 273.05023 C 273.59219 273.21234 274.60272 273.38202 275.55847 273.55923 C 276.51422 273.73645 277.41058 273.92038 278.24756 274.11096 C 279.08456 274.30161 279.85818 274.49802 280.56836 274.7002 C 281.27853 274.90237 281.92191 275.10938 282.49841 275.32117 C 283.07495 275.53299 283.58188 275.7486 284.01923 275.96799 C 284.45657 276.18738 284.82217 276.40948 285.11609 276.63434 C 285.41 276.85919 285.63083 277.08569 285.77853 277.31387 C 285.92618 277.54205 286 277.77075 286 278 Z" fill="none" stroke="#f5ecd8" stroke-opacity="1" stroke-miterlimit="4" stroke-linecap="round" stroke-linejoin="round" stroke-width="4.5px" stroke-dasharray="" stroke-dashoffset="0px"></path><path d="M 253 120 L 292 58" fill="none" stroke="#f5ecd8" stroke-opacity="1" stroke-miterlimit="4" stroke-linecap="round" stroke-linejoin="round" stroke-width="4.5px" stroke-dasharray="" stroke-dashoffset="0px"></path><path d="M 310 52 C 310 52.722267 309.92953 53.437595 309.78864 54.145985 C 309.64774 54.854378 309.43906 55.542221 309.16266 56.209511 C 308.88626 56.876801 308.54742 57.510719 308.14615 58.111267 C 307.74487 58.711811 307.28888 59.267448 306.77817 59.778172 C 306.26743 60.288895 305.71179 60.744888 305.11124 61.14616 C 304.51068 61.547432 303.87674 61.886269 303.20947 62.16267 C 302.54218 62.439068 301.85434 62.647724 301.14597 62.788635 C 300.43756 62.929543 299.72226 62.999996 299 63 C 298.27771 62.999996 297.56238 62.929543 296.85397 62.788635 C 296.14557 62.647724 295.4577 62.439068 294.79044 62.162666 C 294.12314 61.886265 293.48923 61.547432 292.88867 61.14616 C 292.28812 60.744888 291.73251 60.288895 291.2218 59.778172 C 290.71106 59.267448 290.25507 58.711811 289.85379 58.111267 C 289.45251 57.510719 289.11371 56.876801 288.83731 56.209511 C 288.56091 55.542221 288.35223 54.854382 288.21133 54.145988 C 288.07043 53.437595 287.99997 52.722267 288 52 C 287.99997 51.277729 288.07043 50.562397 288.21133 49.854004 C 288.35223 49.145607 288.56091 48.457764 288.83731 47.790478 C 289.11371 47.123188 289.45251 46.489269 289.85379 45.888721 C 290.25507 45.288177 290.71106 44.732548 291.2218 44.221825 C 291.73251 43.711102 292.28812 43.255104 292.88867 42.853832 C 293.48923 42.45256 294.12314 42.113724 294.79044 41.837322 C 295.4577 41.560921 296.14557 41.352264 296.85397 41.211361 C 297.56238 41.070454 298.27771 41 299 41 C 299.72226 41 300.43756 41.070454 301.14597 41.211361 C 301.85434 41.352264 302.54218 41.560921 303.20947 41.837322 C 303.87674 42.113724 304.51068 42.45256 305.11124 42.853836 C 305.71179 43.255108 306.26743 43.711102 306.77817 44.221825 C 307.28888 44.732548 307.74487 45.288181 308.14615 45.888725 C 308.54742 46.489269 308.88626 47.123188 309.16266 47.790478 C 309.43906 48.457764 309.64774 49.145607 309.78864 49.854004 C 309.92953 50.562397 310 51.277729 310 52 Z" fill="none" stroke="#f5ecd8" stroke-opacity="1" stroke-miterlimit="4" stroke-linecap="round" stroke-linejoin="round" stroke-width="4.5px" stroke-dasharray="" stroke-dashoffset="0px"></path><path d="M 50 300 L 430 300" fill="none" stroke="#d4b06a" stroke-opacity="1" stroke-miterlimit="4" stroke-linecap="butt" stroke-linejoin="miter" stroke-width="2px" stroke-dasharray="" stroke-dashoffset="0px"></path></g></g></svg>
