<svg xmlns="http://www.w3.org/2000/svg" version="1.1" width="942.95996px" height="450px" preserveAspectRatio="none" viewBox="0 0 942.95996 450"><defs><linearGradient id="ogGold" x1="0" y1="0" x2="0" y2="1"><stop offset="0" stop-color="#efd89b"></stop><stop offset="0.5" stop-color="#c8a04a"></stop><stop offset="1" stop-color="#e4c885"></stop></linearGradient></defs><defs><clipPath id="clippath0" transform="matrix(0.23999999 0 0 -0.23999999 0 450)"><path d="M 0 0 L 3928.125 0 L 3928.125 1875 L 0 1875 Z" fill="none" clip-rule="evenodd"></path></clipPath><clipPath id="clippath1" transform="matrix(0.23999999 0 0 -0.23999999 0 450)"><path d="M 1309.375 228.125 L 2621.875 228.125 L 2621.875 1650 L 1309.375 1650 Z" fill="none" clip-rule="evenodd"></path></clipPath></defs><g transform="matrix(1 0 0 -1 0 450)"><g transform="matrix(0.23999999 0 0 -0.23999999 0 450)"><path d="M 0 0 L 3928.125 0 L 3928.125 1875 L 0 1875 Z" fill="none"></path></g><g clip-path="url(#clippath0)"><g transform="matrix(0.7499999687 0 0 -0.7499999687 0 450)"><path d="M 0 0 L 1257 0 L 1257 600 L 0 600 Z" fill="#232b3a" fill-opacity="1"></path></g></g><g transform="matrix(0.23999999 0 0 -0.23999999 0 450)"><path d="M 1309.375 228.125 L 2621.875 228.125 L 2621.875 1650 L 1309.375 1650 Z" fill="none"></path></g><g clip-path="url(#clippath1)"><g transform="matrix(0.6562499727 0 0 -0.6562499727 314.2499869063 395.2500022812)"><path d="M 165 92 L 315 92 L 240 190 L 165 92 Z" fill="none" stroke="#111111" stroke-opacity="1" stroke-miterlimit="4" stroke-linecap="round" stroke-linejoin="round" stroke-width="4.5px" stroke-dasharray="" stroke-dashoffset="0px"></path><path d="M 240 190 L 240 272" fill="none" stroke="#111111" stroke-opacity="1" stroke-miterlimit="4" stroke-linecap="round" stroke-linejoin="round" stroke-width="4.5px" stroke-dasharray="" stroke-dashoffset="0px"></path><path d="M 286 278 C 286 278.22925 285.92618 278.45795 285.77853 278.68613 C 285.63083 278.91425 285.41 279.14075 285.11609 279.3656 C 284.82217 279.59045 284.45657 279.81256 284.01923 280.03195 C 283.58188 280.25134 283.07495 280.46695 282.49841 280.67874 C 281.92191 280.89056 281.27853 281.09756 280.56836 281.29974 C 279.85818 281.50192 279.08456 281.69833 278.24756 281.88895 C 277.41058 282.07959 276.51422 282.26352 275.55847 282.44073 C 274.60272 282.61795 273.59219 282.78763 272.52689 282.94974 C 271.46161 283.11185 270.34665 283.26563 269.18207 283.41107 C 268.01749 283.55649 266.80884 283.6929 265.55618 283.82025 C 264.30353 283.94763 263.01288 284.06537 261.68423 284.17343 C 260.35556 284.28149 258.99527 284.37939 257.60339 284.46713 C 256.21152 284.55487 254.79475 284.63202 253.35307 284.69855 C 251.91141 284.76511 250.45175 284.82074 248.97414 284.86545 C 247.49654 284.91022 246.00809 284.94382 244.50879 284.96631 C 243.00948 284.98877 241.50655 285 240 285 C 238.49345 285 236.99052 284.98877 235.49121 284.96631 C 233.99193 284.94382 232.50346 284.91022 231.02583 284.86545 C 229.54822 284.82074 228.08858 284.76511 226.6469 284.69855 C 225.20522 284.63202 223.78844 284.55487 222.39655 284.46713 C 221.00467 284.37939 219.64439 284.28149 218.31573 284.1734 C 216.98706 284.06534 215.6964 283.9476 214.44373 283.82022 C 213.19109 283.69287 211.98248 283.55646 210.8179 283.41104 C 209.65332 283.26563 208.53838 283.11185 207.47307 282.94974 C 206.40778 282.78763 205.39725 282.61795 204.4415 282.44073 C 203.48576 282.26352 202.58939 282.07959 201.75238 281.88895 C 200.91539 281.69833 200.1418 281.50192 199.43161 281.29974 C 198.72141 281.09756 198.07803 280.89056 197.50151 280.67874 C 196.92499 280.46695 196.41806 280.25134 195.98073 280.03195 C 195.5434 279.81256 195.17778 279.59045 194.88385 279.3656 C 194.58995 279.14075 194.36917 278.91425 194.2215 278.68613 C 194.07384 278.45795 194.00002 278.22925 194 278 C 194.00002 277.77075 194.07385 277.54205 194.22151 277.31387 C 194.36917 277.08569 194.58997 276.85919 194.88387 276.63434 C 195.17778 276.40948 195.54341 276.18738 195.98074 275.96799 C 196.41808 275.7486 196.92499 275.53299 197.50151 275.32117 C 198.07803 275.10938 198.72141 274.90237 199.43161 274.7002 C 200.1418 274.49802 200.91539 274.30161 201.75238 274.11096 C 202.58939 273.92038 203.48576 273.73645 204.4415 273.55923 C 205.39725 273.38202 206.40778 273.21234 207.47307 273.05023 C 208.53838 272.88812 209.65332 272.73434 210.81789 272.58893 C 211.98248 272.44348 213.19109 272.30707 214.44373 272.17969 C 215.6964 272.05234 216.98706 271.93463 218.31572 271.82654 C 219.64439 271.71848 221.00467 271.62057 222.39655 271.53284 C 223.78844 271.4451 225.20522 271.36798 226.6469 271.30142 C 228.08858 271.23489 229.54822 271.17926 231.02583 271.13449 C 232.50346 271.08978 233.99193 271.05621 235.49121 271.03372 C 236.99052 271.01126 238.49345 271.00003 240 271 C 241.50655 271.00003 243.00948 271.01126 244.50877 271.03372 C 246.00809 271.05621 247.49654 271.08978 248.97414 271.13449 C 250.45175 271.17926 251.91141 271.23489 253.35309 271.30142 C 254.79475 271.36798 256.21152 271.4451 257.60339 271.53284 C 258.99527 271.62057 260.35556 271.71848 261.68423 271.82654 C 263.01288 271.93463 264.30353 272.05234 265.55618 272.17969 C 266.80884 272.30707 268.01749 272.44348 269.18207 272.58893 C 270.34665 272.73434 271.46161 272.88812 272.52689 273.05023 C 273.59219 273.21234 274.60272 273.38202 275.55847 273.55923 C 276.51422 273.73645 277.41058 273.92038 278.24756 274.11096 C 279.08456 274.30161 279.85818 274.49802 280.56836 274.7002 C 281.27853 274.90237 281.92191 275.10938 282.49841 275.32117 C 283.07495 275.53299 283.58188 275.7486 284.01923 275.96799 C 284.45657 276.18738 284.82217 276.40948 285.11609 276.63434 C 285.41 276.85919 285.63083 277.08569 285.77853 277.31387 C 285.92618 277.54205 286 277.77075 286 278 Z" fill="none" stroke="#111111" stroke-opacity="1" stroke-miterlimit="4" stroke-linecap="round" stroke-linejoin="round" stroke-width="4.5px" stroke-dasharray="" stroke-dashoffset="0px"></path><path d="M 253 120 L 292 58" fill="none" stroke="#111111" stroke-opacity="1" stroke-miterlimit="4" stroke-linecap="round" stroke-linejoin="round" stroke-width="4.5px" stroke-dasharray="" stroke-dashoffset="0px"></path><path d="M 310 52 C 310 52.722267 309.92953 53.437595 309.78864 54.145985 C 309.64774 54.854378 309.43906 55.542221 309.16266 56.209511 C 308.88626 56.876801 308.54742 57.510719 308.14615 58.111267 C 307.74487 58.711811 307.28888 59.267448 306.77817 59.778172 C 306.26743 60.288895 305.71179 60.744888 305.11124 61.14616 C 304.51068 61.547432 303.87674 61.886269 303.20947 62.16267 C 302.54218 62.439068 301.85434 62.647724 301.14597 62.788635 C 300.43756 62.929543 299.72226 62.999996 299 63 C 298.27771 62.999996 297.56238 62.929543 296.85397 62.788635 C 296.14557 62.647724 295.4577 62.439068 294.79044 62.162666 C 294.12314 61.886265 293.48923 61.547432 292.88867 61.14616 C 292.28812 60.744888 291.73251 60.288895 291.2218 59.778172 C 290.71106 59.267448 290.25507 58.711811 289.85379 58.111267 C 289.45251 57.510719 289.11371 56.876801 288.83731 56.209511 C 288.56091 55.542221 288.35223 54.854382 288.21133 54.145988 C 288.07043 53.437595 287.99997 52.722267 288 52 C 287.99997 51.277729 288.07043 50.562397 288.21133 49.854004 C 288.35223 49.145607 288.56091 48.457764 288.83731 47.790478 C 289.11371 47.123188 289.45251 46.489269 289.85379 45.888721 C 290.25507 45.288177 290.71106 44.732548 291.2218 44.221825 C 291.73251 43.711102 292.28812 43.255104 292.88867 42.853832 C 293.48923 42.45256 294.12314 42.113724 294.79044 41.837322 C 295.4577 41.560921 296.14557 41.352264 296.85397 41.211361 C 297.56238 41.070454 298.27771 41 299 41 C 299.72226 41 300.43756 41.070454 301.14597 41.211361 C 301.85434 41.352264 302.54218 41.560921 303.20947 41.837322 C 303.87674 42.113724 304.51068 42.45256 305.11124 42.853836 C 305.71179 43.255108 306.26743 43.711102 306.77817 44.221825 C 307.28888 44.732548 307.74487 45.288181 308.14615 45.888725 C 308.54742 46.489269 308.88626 47.123188 309.16266 47.790478 C 309.43906 48.457764 309.64774 49.145607 309.78864 49.854004 C 309.92953 50.562397 310 51.277729 310 52 Z" fill="none" stroke="#111111" stroke-opacity="1" stroke-miterlimit="4" stroke-linecap="round" stroke-linejoin="round" stroke-width="4.5px" stroke-dasharray="" stroke-dashoffset="0px"></path></g></g><g clip-path="url(#clippath1)"><g transform="matrix(0.7500000167 0 0 -0.7500000167 314.2499869063 395.2500022812)"></g></g><g clip-path="url(#clippath1)"><g transform="matrix(0.6562499727 0 0 -0.6562499727 314.2499869063 395.2500022812)"><path d="M 50 300 L 430 300" fill="none" stroke="#d4b06a" stroke-opacity="1" stroke-miterlimit="4" stroke-linecap="butt" stroke-linejoin="miter" stroke-width="2px" stroke-dasharray="" stroke-dashoffset="0px"></path></g></g><g clip-path="url(#clippath1)"><g transform="matrix(0.7500000167 0 0 -0.7500000167 314.2499869063 395.2500022812)"></g></g></g><g fill="url(#ogGold)"><path d="M433.143 218.002L433.143 218.002Q426.517 218.002 423.015 213.999Q419.514 209.995 419.514 202.427L419.514 202.427L419.514 176.174Q419.514 169.077 422.984 165.403Q426.454 161.729 433.143 161.729L433.143 161.729Q439.831 161.729 443.301 165.403Q446.771 169.077 446.771 176.174L446.771 176.174L446.771 202.427Q446.771 209.995 443.270 213.999Q439.769 218.002 433.143 218.002ZM433.237 207.828L433.237 207.828Q435.749 207.828 435.749 202.960L435.749 202.960L435.749 175.985Q435.749 171.903 433.300 171.903L433.300 171.903Q430.536 171.903 430.536 176.080L430.536 176.080L430.536 203.023Q430.536 205.598 431.164 206.713Q431.792 207.828 433.237 207.828Z"></path><path d="M508.568 218.002L508.568 218.002Q496.729 218.002 496.729 201.045L496.729 201.045L496.729 177.210Q496.729 161.729 510.295 161.729L510.295 161.729Q515.885 161.729 518.868 163.974Q521.851 166.219 522.982 170.521Q524.112 174.824 524.112 181.010L524.112 181.010L513.309 181.010L513.309 176.111Q513.309 174.321 512.823 173.112Q512.336 171.903 510.797 171.903L510.797 171.903Q508.882 171.903 508.269 173.191Q507.657 174.478 507.657 176.017L507.657 176.017L507.657 202.803Q507.657 205.033 508.238 206.431Q508.819 207.828 510.515 207.828L510.515 207.828Q512.273 207.828 512.854 206.431Q513.435 205.033 513.435 202.741L513.435 202.741L513.435 194.859L510.483 194.859L510.483 185.312L523.986 185.312L523.986 217.500L519.559 217.500L517.674 212.852Q514.785 218.002 508.568 218.002Z"></path><g transform="matrix(0.93817 0 0 1 21.852 0)"><path d="M363.461 269.389L366.189 269.389L361.209 278.981L361.209 284.438L358.741 284.438L358.741 278.981L353.739 269.389L356.489 269.389L359.975 276.773L363.461 269.389Z M373.313 284.633Q371.624 284.633 370.260 283.864Q368.896 283.096 368.116 281.699Q367.337 280.302 367.337 278.462L367.337 278.462Q367.337 276.643 368.138 275.235Q368.939 273.828 370.325 273.070Q371.711 272.312 373.421 272.312L373.421 272.312Q375.132 272.312 376.518 273.070Q377.904 273.828 378.705 275.235Q379.506 276.643 379.506 278.462L379.506 278.462Q379.506 280.281 378.683 281.688Q377.860 283.096 376.442 283.864Q375.024 284.633 373.313 284.633L373.313 284.633ZM373.313 282.489Q374.266 282.489 375.099 282.035Q375.933 281.580 376.453 280.670Q376.972 279.761 376.972 278.462L376.972 278.462Q376.972 277.163 376.474 276.264Q375.976 275.365 375.154 274.911Q374.331 274.456 373.378 274.456L373.378 274.456Q372.425 274.456 371.613 274.911Q370.801 275.365 370.325 276.264Q369.849 277.163 369.849 278.462L369.849 278.462Q369.849 280.389 370.834 281.439Q371.819 282.489 373.313 282.489L373.313 282.489Z M390.289 272.507L392.758 272.507L392.758 284.438L390.289 284.438L390.289 283.031Q389.704 283.767 388.763 284.189Q387.821 284.611 386.760 284.611L386.760 284.611Q385.352 284.611 384.237 284.027Q383.122 283.442 382.483 282.294Q381.844 281.147 381.844 279.523L381.844 279.523L381.844 272.507L384.291 272.507L384.291 279.155Q384.291 280.757 385.092 281.612Q385.893 282.468 387.279 282.468L387.279 282.468Q388.665 282.468 389.477 281.612Q390.289 280.757 390.289 279.155L390.289 279.155L390.289 272.507Z M411.163 284.633Q409.755 284.633 408.640 284.124Q407.525 283.615 406.875 282.738Q406.226 281.861 406.182 280.779L406.182 280.779L408.737 280.779Q408.802 281.536 409.463 282.045Q410.123 282.554 411.119 282.554L411.119 282.554Q412.159 282.554 412.732 282.154Q413.306 281.753 413.306 281.125L413.306 281.125Q413.306 280.454 412.667 280.129Q412.029 279.804 410.643 279.415L410.643 279.415Q409.300 279.046 408.456 278.700Q407.611 278.354 406.994 277.639Q406.377 276.924 406.377 275.755L406.377 275.755Q406.377 274.802 406.940 274.012Q407.503 273.222 408.553 272.767Q409.604 272.312 410.968 272.312L410.968 272.312Q413.003 272.312 414.248 273.341Q415.493 274.369 415.580 276.145L415.580 276.145L413.111 276.145Q413.046 275.344 412.462 274.867Q411.877 274.391 410.881 274.391L410.881 274.391Q409.907 274.391 409.387 274.759Q408.867 275.127 408.867 275.733L408.867 275.733Q408.867 276.210 409.214 276.535Q409.560 276.859 410.058 277.044Q410.556 277.228 411.531 277.509L411.531 277.509Q412.830 277.855 413.663 278.213Q414.497 278.570 415.103 279.263Q415.710 279.956 415.731 281.103L415.731 281.103Q415.731 282.121 415.168 282.922Q414.605 283.723 413.577 284.178Q412.548 284.633 411.163 284.633L411.163 284.633Z M426.731 272.507L429.200 272.507L429.200 284.438L426.731 284.438L426.731 283.031Q426.146 283.767 425.205 284.189Q424.263 284.611 423.202 284.611L423.202 284.611Q421.794 284.611 420.679 284.027Q419.564 283.442 418.925 282.294Q418.286 281.147 418.286 279.523L418.286 279.523L418.286 272.507L420.733 272.507L420.733 279.155Q420.733 280.757 421.534 281.612Q422.335 282.468 423.721 282.468L423.721 282.468Q425.107 282.468 425.919 281.612Q426.731 280.757 426.731 279.155L426.731 279.155L426.731 272.507Z M434.916 274.261Q435.544 273.438 436.626 272.875Q437.709 272.312 439.073 272.312L439.073 272.312Q440.632 272.312 441.921 273.081Q443.209 273.850 443.945 275.235Q444.681 276.621 444.681 278.418L444.681 278.418Q444.681 280.216 443.945 281.634Q443.209 283.052 441.921 283.843Q440.632 284.633 439.073 284.633L439.073 284.633Q437.709 284.633 436.648 284.081Q435.587 283.529 434.916 282.706L434.916 282.706L434.916 290.111L432.447 290.111L432.447 272.507L434.916 272.507L434.916 274.261ZM442.170 278.418Q442.170 277.184 441.661 276.286Q441.152 275.387 440.318 274.922Q439.485 274.456 438.532 274.456L438.532 274.456Q437.601 274.456 436.767 274.932Q435.934 275.409 435.425 276.318Q434.916 277.228 434.916 278.462L434.916 278.462Q434.916 279.696 435.425 280.616Q435.934 281.536 436.767 282.013Q437.601 282.489 438.532 282.489L438.532 282.489Q439.485 282.489 440.318 282.002Q441.152 281.515 441.661 280.584Q442.170 279.653 442.170 278.418L442.170 278.418Z M449.597 274.261Q450.225 273.438 451.307 272.875Q452.390 272.312 453.754 272.312L453.754 272.312Q455.313 272.312 456.601 273.081Q457.890 273.850 458.626 275.235Q459.362 276.621 459.362 278.418L459.362 278.418Q459.362 280.216 458.626 281.634Q457.890 283.052 456.601 283.843Q455.313 284.633 453.754 284.633L453.754 284.633Q452.390 284.633 451.329 284.081Q450.268 283.529 449.597 282.706L449.597 282.706L449.597 290.111L447.128 290.111L447.128 272.507L449.597 272.507L449.597 274.261ZM456.850 278.418Q456.850 277.184 456.342 276.286Q455.833 275.387 454.999 274.922Q454.165 274.456 453.213 274.456L453.213 274.456Q452.282 274.456 451.448 274.932Q450.614 275.409 450.105 276.318Q449.597 277.228 449.597 278.462L449.597 278.462Q449.597 279.696 450.105 280.616Q450.614 281.536 451.448 282.013Q452.282 282.489 453.213 282.489L453.213 282.489Q454.165 282.489 454.999 282.002Q455.833 281.515 456.342 280.584Q456.850 279.653 456.850 278.418L456.850 278.418Z M461.809 268.415L464.277 268.415L464.277 284.438L461.809 284.438L461.809 268.415Z M475.710 272.507L478.265 272.507L470.946 290.046L468.391 290.046L470.817 284.243L466.118 272.507L468.868 272.507L472.224 281.601L475.710 272.507Z M480.149 281.472L482.834 281.472L480.214 287.448L478.612 287.448L480.149 281.472Z M512.780 269.389L515.422 269.389L510.961 284.438L508.168 284.438L505.007 273.049L501.650 284.438L498.879 284.460L494.613 269.389L497.233 269.389L500.351 281.645L503.729 269.389L506.501 269.389L509.640 281.580L512.780 269.389Z M528.392 278.180Q528.392 278.852 528.305 279.393L528.305 279.393L519.189 279.393Q519.298 280.822 520.250 281.688Q521.203 282.554 522.589 282.554L522.589 282.554Q524.581 282.554 525.404 280.887L525.404 280.887L528.067 280.887Q527.526 282.533 526.108 283.583Q524.689 284.633 522.589 284.633L522.589 284.633Q520.878 284.633 519.525 283.864Q518.172 283.096 517.403 281.699Q516.634 280.302 516.634 278.462L516.634 278.462Q516.634 276.621 517.381 275.225Q518.128 273.828 519.482 273.070Q520.835 272.312 522.589 272.312L522.589 272.312Q524.278 272.312 525.599 273.049Q526.919 273.785 527.656 275.116Q528.392 276.448 528.392 278.180L528.392 278.180ZM519.211 277.401L525.815 277.401Q525.794 276.037 524.841 275.214Q523.888 274.391 522.481 274.391L522.481 274.391Q521.203 274.391 520.294 275.203Q519.384 276.015 519.211 277.401L519.211 277.401Z M545.974 284.633Q544.567 284.633 543.452 284.124Q542.336 283.615 541.687 282.738Q541.037 281.861 540.994 280.779L540.994 280.779L543.549 280.779Q543.614 281.536 544.274 282.045Q544.935 282.554 545.931 282.554L545.931 282.554Q546.970 282.554 547.544 282.154Q548.118 281.753 548.118 281.125L548.118 281.125Q548.118 280.454 547.479 280.129Q546.840 279.804 545.454 279.415L545.454 279.415Q544.112 279.046 543.268 278.700Q542.423 278.354 541.806 277.639Q541.189 276.924 541.189 275.755L541.189 275.755Q541.189 274.802 541.752 274.012Q542.315 273.222 543.365 272.767Q544.415 272.312 545.779 272.312L545.779 272.312Q547.815 272.312 549.060 273.341Q550.305 274.369 550.391 276.145L550.391 276.145L547.923 276.145Q547.858 275.344 547.273 274.867Q546.689 274.391 545.693 274.391L545.693 274.391Q544.718 274.391 544.199 274.759Q543.679 275.127 543.679 275.733L543.679 275.733Q543.679 276.210 544.025 276.535Q544.372 276.859 544.870 277.044Q545.368 277.228 546.342 277.509L546.342 277.509Q547.641 277.855 548.475 278.213Q549.309 278.570 549.915 279.263Q550.521 279.956 550.543 281.103L550.543 281.103Q550.543 282.121 549.980 282.922Q549.417 283.723 548.388 284.178Q547.360 284.633 545.974 284.633L545.974 284.633Z M559.377 272.312Q560.741 272.312 561.813 272.897Q562.885 273.482 563.502 274.629Q564.119 275.777 564.119 277.401L564.119 277.401L564.119 284.438L561.673 284.438L561.673 277.769Q561.673 276.167 560.871 275.311Q560.070 274.456 558.684 274.456L558.684 274.456Q557.299 274.456 556.487 275.311Q555.675 276.167 555.675 277.769L555.675 277.769L555.675 284.438L553.206 284.438L553.206 268.415L555.675 268.415L555.675 273.893Q556.303 273.135 557.266 272.724Q558.230 272.312 559.377 272.312L559.377 272.312Z M566.436 278.418Q566.436 276.621 567.183 275.235Q567.930 273.850 569.219 273.081Q570.507 272.312 572.066 272.312L572.066 272.312Q573.473 272.312 574.524 272.864Q575.574 273.417 576.202 274.239L576.202 274.239L576.202 272.507L578.692 272.507L578.692 284.438L576.202 284.438L576.202 282.662Q575.574 283.507 574.491 284.070Q573.408 284.633 572.023 284.633L572.023 284.633Q570.485 284.633 569.208 283.843Q567.930 283.052 567.183 281.634Q566.436 280.216 566.436 278.418L566.436 278.418ZM576.202 278.462Q576.202 277.228 575.693 276.318Q575.184 275.409 574.361 274.932Q573.538 274.456 572.586 274.456L572.586 274.456Q571.633 274.456 570.810 274.922Q569.987 275.387 569.478 276.286Q568.970 277.184 568.970 278.418L568.970 278.418Q568.970 279.653 569.478 280.584Q569.987 281.515 570.821 282.002Q571.655 282.489 572.586 282.489L572.586 282.489Q573.538 282.489 574.361 282.013Q575.184 281.536 575.693 280.616Q576.202 279.696 576.202 278.462L576.202 278.462Z M592.160 272.507L586.660 278.483L592.160 284.438L588.825 284.438L584.408 279.306L584.408 284.438L581.940 284.438L581.940 268.415L584.408 268.415L584.408 277.726L588.739 272.507L592.160 272.507Z M604.870 278.180Q604.870 278.852 604.784 279.393L604.784 279.393L595.668 279.393Q595.776 280.822 596.729 281.688Q597.681 282.554 599.067 282.554L599.067 282.554Q601.059 282.554 601.882 280.887L601.882 280.887L604.545 280.887Q604.004 282.533 602.586 283.583Q601.168 284.633 599.067 284.633L599.067 284.633Q597.357 284.633 596.003 283.864Q594.650 283.096 593.881 281.699Q593.113 280.302 593.113 278.462L593.113 278.462Q593.113 276.621 593.860 275.225Q594.607 273.828 595.960 273.070Q597.313 272.312 599.067 272.312L599.067 272.312Q600.756 272.312 602.077 273.049Q603.398 273.785 604.134 275.116Q604.870 276.448 604.870 278.180L604.870 278.180ZM595.689 277.401L602.294 277.401Q602.272 276.037 601.319 275.214Q600.366 274.391 598.959 274.391L598.959 274.391Q597.681 274.391 596.772 275.203Q595.863 276.015 595.689 277.401L595.689 277.401Z "></path></g></g></svg>